<svg width="64" height="64" viewBox="0 0 16 16" xmlns="http://www.w3.org/2000/svg" shape-rendering="crispEdges"><rect x="1" y="2" width="14" height="1" fill="#1F150C"/><rect x="0" y="3" width="1" height="1" fill="#1F150C"/><rect x="1" y="3" width="14" height="1" fill="#A6ADB5"/><rect x="15" y="3" width="1" height="1" fill="#1F150C"/><rect x="0" y="4" width="1" height="1" fill="#1F150C"/><rect x="1" y="4" width="5" height="1" fill="#A6ADB5"/><rect x="6" y="4" width="1" height="1" fill="#1F150C"/><rect x="7" y="4" width="2" height="1" fill="#8A5A2E"/><rect x="9" y="4" width="1" height="1" fill="#1F150C"/><rect x="10" y="4" width="5" height="1" fill="#A6ADB5"/><rect x="15" y="4" width="1" height="1" fill="#1F150C"/><rect x="1" y="5" width="4" height="1" fill="#1F150C"/><rect x="6" y="5" width="1" height="1" fill="#1F150C"/><rect x="7" y="5" width="2" height="1" fill="#8A5A2E"/><rect x="9" y="5" width="1" height="1" fill="#1F150C"/><rect x="11" y="5" width="4" height="1" fill="#1F150C"/><rect x="6" y="6" width="1" height="1" fill="#1F150C"/><rect x="7" y="6" width="2" height="1" fill="#8A5A2E"/><rect x="9" y="6" width="1" height="1" fill="#1F150C"/><rect x="6" y="7" width="1" height="1" fill="#1F150C"/><rect x="7" y="7" width="2" height="1" fill="#8A5A2E"/><rect x="9" y="7" width="1" height="1" fill="#1F150C"/><rect x="6" y="8" width="1" height="1" fill="#1F150C"/><rect x="7" y="8" width="2" height="1" fill="#8A5A2E"/><rect x="9" y="8" width="1" height="1" fill="#1F150C"/><rect x="6" y="9" width="1" height="1" fill="#1F150C"/><rect x="7" y="9" width="2" height="1" fill="#8A5A2E"/><rect x="9" y="9" width="1" height="1" fill="#1F150C"/><rect x="6" y="10" width="1" height="1" fill="#1F150C"/><rect x="7" y="10" width="2" height="1" fill="#8A5A2E"/><rect x="9" y="10" width="1" height="1" fill="#1F150C"/><rect x="6" y="11" width="1" height="1" fill="#1F150C"/><rect x="7" y="11" width="2" height="1" fill="#8A5A2E"/><rect x="9" y="11" width="1" height="1" fill="#1F150C"/><rect x="6" y="12" width="1" height="1" fill="#1F150C"/><rect x="7" y="12" width="2" height="1" fill="#8A5A2E"/><rect x="9" y="12" width="1" height="1" fill="#1F150C"/><rect x="6" y="13" width="4" height="1" fill="#1F150C"/></svg>