<svg width="64" height="64" viewBox="0 0 16 16" xmlns="http://www.w3.org/2000/svg" shape-rendering="crispEdges"><rect x="3" y="2" width="10" height="1" fill="#1F150C"/><rect x="2" y="3" width="1" height="1" fill="#1F150C"/><rect x="3" y="3" width="10" height="1" fill="#8A6B4A"/><rect x="13" y="3" width="1" height="1" fill="#1F150C"/><rect x="2" y="4" width="1" height="1" fill="#1F150C"/><rect x="3" y="4" width="1" height="1" fill="#8A6B4A"/><rect x="4" y="4" width="8" height="1" fill="#241A10"/><rect x="12" y="4" width="1" height="1" fill="#8A6B4A"/><rect x="13" y="4" width="1" height="1" fill="#1F150C"/><rect x="2" y="5" width="1" height="1" fill="#1F150C"/><rect x="3" y="5" width="1" height="1" fill="#8A6B4A"/><rect x="4" y="5" width="1" height="1" fill="#241A10"/><rect x="5" y="5" width="1" height="1" fill="#8A5A2E"/><rect x="6" y="5" width="3" height="1" fill="#241A10"/><rect x="9" y="5" width="1" height="1" fill="#8A5A2E"/><rect x="10" y="5" width="2" height="1" fill="#241A10"/><rect x="12" y="5" width="1" height="1" fill="#8A6B4A"/><rect x="13" y="5" width="1" height="1" fill="#1F150C"/><rect x="2" y="6" width="1" height="1" fill="#1F150C"/><rect x="3" y="6" width="1" height="1" fill="#8A6B4A"/><rect x="4" y="6" width="1" height="1" fill="#241A10"/><rect x="5" y="6" width="1" height="1" fill="#8A5A2E"/><rect x="6" y="6" width="3" height="1" fill="#241A10"/><rect x="9" y="6" width="1" height="1" fill="#8A5A2E"/><rect x="10" y="6" width="2" height="1" fill="#241A10"/><rect x="12" y="6" width="1" height="1" fill="#8A6B4A"/><rect x="13" y="6" width="1" height="1" fill="#1F150C"/><rect x="2" y="7" width="1" height="1" fill="#1F150C"/><rect x="3" y="7" width="1" height="1" fill="#8A6B4A"/><rect x="4" y="7" width="1" height="1" fill="#241A10"/><rect x="5" y="7" width="1" height="1" fill="#8A5A2E"/><rect x="6" y="7" width="3" height="1" fill="#241A10"/><rect x="9" y="7" width="1" height="1" fill="#8A5A2E"/><rect x="10" y="7" width="2" height="1" fill="#241A10"/><rect x="12" y="7" width="1" height="1" fill="#8A6B4A"/><rect x="13" y="7" width="1" height="1" fill="#1F150C"/><rect x="2" y="8" width="1" height="1" fill="#1F150C"/><rect x="3" y="8" width="1" height="1" fill="#8A6B4A"/><rect x="4" y="8" width="1" height="1" fill="#241A10"/><rect x="5" y="8" width="1" height="1" fill="#8A5A2E"/><rect x="6" y="8" width="3" height="1" fill="#241A10"/><rect x="9" y="8" width="1" height="1" fill="#8A5A2E"/><rect x="10" y="8" width="2" height="1" fill="#241A10"/><rect x="12" y="8" width="1" height="1" fill="#8A6B4A"/><rect x="13" y="8" width="1" height="1" fill="#1F150C"/><rect x="2" y="9" width="1" height="1" fill="#1F150C"/><rect x="3" y="9" width="1" height="1" fill="#8A6B4A"/><rect x="4" y="9" width="8" height="1" fill="#241A10"/><rect x="12" y="9" width="1" height="1" fill="#8A6B4A"/><rect x="13" y="9" width="1" height="1" fill="#1F150C"/><rect x="2" y="10" width="12" height="1" fill="#1F150C"/></svg>