<svg width="64" height="64" viewBox="0 0 16 16" xmlns="http://www.w3.org/2000/svg" shape-rendering="crispEdges"><rect x="2" y="2" width="12" height="1" fill="#A8D8E8"/><rect x="2" y="3" width="1" height="1" fill="#A8D8E8"/><rect x="3" y="3" width="2" height="1" fill="#C8ECF4"/><rect x="5" y="3" width="9" height="1" fill="#A8D8E8"/><rect x="2" y="4" width="1" height="1" fill="#A8D8E8"/><rect x="3" y="4" width="1" height="1" fill="#C8ECF4"/><rect x="4" y="4" width="1" height="1" fill="#FFFFFF"/><rect x="5" y="4" width="9" height="1" fill="#A8D8E8"/><rect x="2" y="5" width="1" height="1" fill="#A8D8E8"/><rect x="3" y="5" width="1" height="1" fill="#C8ECF4"/><rect x="4" y="5" width="1" height="1" fill="#FFFFFF"/><rect x="5" y="5" width="1" height="1" fill="#C8ECF4"/><rect x="6" y="5" width="8" height="1" fill="#A8D8E8"/><rect x="2" y="6" width="2" height="1" fill="#A8D8E8"/><rect x="4" y="6" width="1" height="1" fill="#C8ECF4"/><rect x="5" y="6" width="1" height="1" fill="#FFFFFF"/><rect x="6" y="6" width="8" height="1" fill="#A8D8E8"/><rect x="2" y="7" width="2" height="1" fill="#A8D8E8"/><rect x="4" y="7" width="1" height="1" fill="#C8ECF4"/><rect x="5" y="7" width="1" height="1" fill="#FFFFFF"/><rect x="6" y="7" width="8" height="1" fill="#A8D8E8"/><rect x="2" y="8" width="3" height="1" fill="#A8D8E8"/><rect x="5" y="8" width="1" height="1" fill="#C8ECF4"/><rect x="6" y="8" width="1" height="1" fill="#FFFFFF"/><rect x="7" y="8" width="7" height="1" fill="#A8D8E8"/><rect x="2" y="9" width="3" height="1" fill="#A8D8E8"/><rect x="5" y="9" width="1" height="1" fill="#C8ECF4"/><rect x="6" y="9" width="1" height="1" fill="#FFFFFF"/><rect x="7" y="9" width="7" height="1" fill="#A8D8E8"/><rect x="2" y="10" width="4" height="1" fill="#A8D8E8"/><rect x="6" y="10" width="1" height="1" fill="#C8ECF4"/><rect x="7" y="10" width="1" height="1" fill="#FFFFFF"/><rect x="8" y="10" width="6" height="1" fill="#A8D8E8"/><rect x="2" y="11" width="12" height="1" fill="#A8D8E8"/><rect x="2" y="12" width="12" height="1" fill="#A8D8E8"/><rect x="2" y="13" width="12" height="1" fill="#A8D8E8"/><rect x="2" y="14" width="12" height="1" fill="#A8D8E8"/><rect x="2" y="15" width="12" height="1" fill="#A8D8E8"/></svg>