<svg width="64" height="64" viewBox="0 0 16 16" xmlns="http://www.w3.org/2000/svg" shape-rendering="crispEdges"><rect x="4" y="3" width="6" height="1" fill="#4A4A4A"/><rect x="3" y="4" width="2" height="1" fill="#4A4A4A"/><rect x="5" y="4" width="5" height="1" fill="#2E2E2E"/><rect x="10" y="4" width="1" height="1" fill="#4A4A4A"/><rect x="2" y="5" width="2" height="1" fill="#4A4A4A"/><rect x="4" y="5" width="7" height="1" fill="#2E2E2E"/><rect x="11" y="5" width="1" height="1" fill="#4A4A4A"/><rect x="2" y="6" width="1" height="1" fill="#4A4A4A"/><rect x="3" y="6" width="9" height="1" fill="#2E2E2E"/><rect x="2" y="7" width="1" height="1" fill="#4A4A4A"/><rect x="3" y="7" width="9" height="1" fill="#2E2E2E"/><rect x="12" y="7" width="1" height="1" fill="#1A1A1A"/><rect x="2" y="8" width="1" height="1" fill="#4A4A4A"/><rect x="3" y="8" width="9" height="1" fill="#2E2E2E"/><rect x="12" y="8" width="1" height="1" fill="#1A1A1A"/><rect x="2" y="9" width="10" height="1" fill="#2E2E2E"/><rect x="12" y="9" width="1" height="1" fill="#1A1A1A"/><rect x="2" y="10" width="9" height="1" fill="#2E2E2E"/><rect x="11" y="10" width="2" height="1" fill="#1A1A1A"/><rect x="2" y="11" width="1" height="1" fill="#1A1A1A"/><rect x="3" y="11" width="7" height="1" fill="#2E2E2E"/><rect x="10" y="11" width="2" height="1" fill="#1A1A1A"/><rect x="3" y="12" width="8" height="1" fill="#1A1A1A"/></svg>