<svg width="64" height="64" viewBox="0 0 16 16" xmlns="http://www.w3.org/2000/svg" shape-rendering="crispEdges"><rect x="7" y="2" width="1" height="1" fill="#6B4A2A"/><rect x="8" y="3" width="2" height="1" fill="#4E8A3C"/><rect x="4" y="4" width="8" height="1" fill="#D8402C"/><rect x="3" y="5" width="10" height="1" fill="#D8402C"/><rect x="2" y="6" width="1" height="1" fill="#D8402C"/><rect x="3" y="6" width="1" height="1" fill="#F07050"/><rect x="4" y="6" width="10" height="1" fill="#D8402C"/><rect x="2" y="7" width="1" height="1" fill="#D8402C"/><rect x="3" y="7" width="1" height="1" fill="#F07050"/><rect x="4" y="7" width="10" height="1" fill="#D8402C"/><rect x="2" y="8" width="12" height="1" fill="#D8402C"/><rect x="2" y="9" width="12" height="1" fill="#D8402C"/><rect x="2" y="10" width="12" height="1" fill="#D8402C"/><rect x="3" y="11" width="10" height="1" fill="#D8402C"/><rect x="4" y="12" width="8" height="1" fill="#D8402C"/><rect x="5" y="13" width="6" height="1" fill="#D8402C"/></svg>